# xmcd CD database file
#
# Track frame offsets:
#	150
#	12762
#	26582
#	47252
#	61095
#	76375
#	82685
#	101582
#	122367
#	124822
#	142202
#	157365
#
# Disc length: 2442 seconds
#
# Revision: 0
# Processed by: cddbd v1.4PL0 Copyright (c) Steve Scherf et al.
# Submitted via: Feurio! 1.65 - http://www.feurio.com
#
DISCID=8e09880c
DTITLE=NCS - On A Faster Lane
DYEAR=1996
DGENRE=blues
TTITLE0=Blue Sky Over Memphis
TTITLE1=Ups And Downs
TTITLE2=Big Cars, Skyscrapers
TTITLE3=Norma's Country Store
TTITLE4=Come Back Soon
TTITLE5=(Standing At The) Crossroads
TTITLE6=Crossroads
TTITLE7=Join Hands
TTITLE8=Recording At The Sun
TTITLE9=Things 'bout Coming My Way
TTITLE10=Billy The Kid
TTITLE11=Cosstown Traffic
EXTD=
EXTT0=
EXTT1=
EXTT2=
EXTT3=
EXTT4=
EXTT5=
EXTT6=
EXTT7=
EXTT8=
EXTT9=
EXTT10=
EXTT11=
PLAYORDER=
